<?xml version="1.0" encoding="iso-8859-1"?>
<!-- Generator: Adobe Illustrator 19.0.0, SVG Export Plug-In . SVG Version: 6.00 Build 0)  -->
<svg version="1.1" id="Layer_1" xmlns="http://www.w3.org/2000/svg" xmlns:xlink="http://www.w3.org/1999/xlink" x="0px" y="0px"
	 viewBox="0 0 228.394 228.394" style="enable-background:new 0 0 228.394 228.394;" xml:space="preserve">
<g>
	<g>
		<g>
			<path d="M227.295,125.704c-0.184-1.132-1.496-1.572-2.46-1.396c-12.379,2.235-24.757,4.471-37.136,6.706
				c0.45-3.272,0.773-6.584,0.828-9.966c-0.546-33.587-20.129-62.835-49.189-77.995c10.156-7.139,12.351-22.363,12.449-23.069
				l0.132-0.988l-0.884-0.46c-0.752-0.388-18.388-9.42-31.24-3.612c-3.516,1.587-6.266,4.094-8.418,6.917
				c0.852-6.184,0.964-11.885,0.73-16.733c-0.052-1.104-0.864-2-2.092-1.904c-1.104,0.052-1.956,0.992-1.9,2.092
				c0.362,7.499-0.136,17.131-3.119,27.402c-30.961-3.272-63.16,8.072-83.869,31.966c-24.62,28.404-28.288,70.144-8.02,102.016
				c16.376,25.749,44.826,41.006,74.603,43.042c19.034,12.775,43.295,18.156,67.369,14.194
				C201.063,214.868,235.019,173.22,227.295,125.704z M214.583,130.204c0.928,3.356,0.432,13.904,0.152,16.704
				c-1.032,10.284-4.508,20.284-9.884,29.1c-11.536,18.92-30.84,30.964-52.328,35.236c-19.364,3.144-39.388-0.14-55.948-11.004
				c-7.548-4.952-14.208-11.224-19.396-18.632c-2.504-3.58-4.608-7.38-6.376-11.372c-0.86-1.944-3.896-10.844-4.284-13.224
				c46.556-8.408,91.24-16.544,137.992-24.988C207.967,131.4,211.128,130.828,214.583,130.204z M126.526,31.786l12.507,7.886
				c-1.227,1.05-2.58,1.973-4.11,2.663c-0.793,0.357-1.612,0.642-2.447,0.876l-13.613-8.054L126.526,31.786z M116.817,36.059
				l13.028,7.707c-8.234,1.174-17.423-2.205-21.514-3.973L116.817,36.059z M140.401,38.389l-11.871-7.484l6.336-2.789l9.411,5.033
				C143.222,35.005,141.938,36.803,140.401,38.389z M145.132,31.548l-8.151-4.362l11.495-5.059
				C147.943,24.417,146.921,27.964,145.132,31.548z M120.964,17.508c9.534-4.301,22.653,0.773,27.164,2.789L107.425,38.21
				c0.918-2.598,1.678-5.169,2.298-7.693C111.802,25.568,115.283,20.069,120.964,17.508z M24.82,175.56
				c-24.1-27.176-27.836-67.344-8.256-98.132c18.518-29.117,53.385-44.156,87.19-40.837c-1.451,4.159-3.336,8.389-5.752,12.596
				c-0.801-0.171-1.628-0.307-2.471-0.407c-7.284-0.864-13.38,1.3-13.812,4.94c-0.22,1.864,1.028,3.732,3.516,5.256
				c2.272,1.396,5.384,2.384,8.756,2.784c1.084,0.128,2.144,0.192,3.164,0.192c5.824,0,10.276-2.032,10.648-5.132
				c0.22-1.864-1.028-3.732-3.516-5.256c-0.709-0.436-1.509-0.827-2.364-1.177c1.586-2.839,2.943-5.684,4.101-8.509
				c3.058,1.429,11.525,4.983,20.191,4.983c2.98,0,5.984-0.424,8.795-1.499c28.761,13.961,48.979,42.359,49.517,75.687
				c-0.059,3.63-0.407,7.196-0.931,10.707c-36.01,6.502-72.019,13.004-108.029,19.509c-7.128,1.288-14.26,2.576-21.388,3.864
				c-1.116,0.2-1.592,1.48-1.396,2.46c3.928,19.757,14.389,35.883,28.58,47.434C59.895,202.116,39.496,192.107,24.82,175.56z
				 M94.948,57.576c0.348,0.244,0.744,0.36,1.144,0.36c0.628,0,1.252-0.3,1.64-0.852c1.184-1.695,2.274-3.4,3.282-5.109
				c0.85,0.336,1.638,0.714,2.33,1.137c1.82,1.116,2.788,2.392,2.656,3.496c-0.264,2.216-5.152,4.136-11.796,3.352
				c-3.112-0.372-5.964-1.272-8.024-2.532c-1.82-1.116-2.788-2.392-2.656-3.496c0.224-1.868,3.748-3.532,8.828-3.532
				c0.94,0,1.932,0.06,2.968,0.18c0.578,0.069,1.144,0.162,1.701,0.267c-0.803,1.319-1.654,2.636-2.569,3.945
				C93.819,55.696,94.039,56.944,94.948,57.576z M154.016,220.056c-44.056,7.248-87.968-16.352-96.924-61.408
				c-0.028,0.05-0.051,0.09-0.07,0.123c0.021-0.037,0.045-0.079,0.07-0.123c2.588-0.468,5.124-0.924,7.7-1.392
				c9.108,39.872,48.76,62.14,88.216,55.736c39.224-7.804,68.288-42.604,62.976-83.036c2.564-0.464,5.132-0.928,7.696-1.388
				C229.919,173.256,197.08,211.588,154.016,220.056z M56.972,158.858c0.007-0.013,0.017-0.029,0.029-0.05
				C56.988,158.829,56.978,158.847,56.972,158.858z"/>
			<path d="M149.664,204.564c0.48,0,0.984-0.02,1.504-0.072c7.948-0.736,10.908-7.48,11.032-7.768l0.148-0.356l-20.648-48.376
				l-2.24,51.252l-0.012,0.288l0.156,0.244C139.74,199.98,142.776,204.564,149.664,204.564z M143.159,156.044l17.208,40.304
				c-0.66,1.288-3.384,5.784-9.364,6.34c-6.02,0.548-9.016-2.764-9.72-3.676L143.159,156.044z"/>
			<path d="M104.547,192.584c1.008,3.048,3.68,5.46,7.944,7.168c5.208,2.084,9.272,3.156,12.5,3.252
				c2.096,0.064,3.836-0.284,5.3-1.036c2.364-1.208,3.916-3.416,4.748-6.752c1.064-4.272,3.012-42.272,3.096-43.888l0.132-2.524
				l-32.776,35.868C105.396,184.828,103.191,188.488,104.547,192.584z M106.94,185.76l29.26-31.996
				c-0.744,14.144-2.144,37.928-2.916,41.016c-0.696,2.796-1.944,4.62-3.812,5.576c-3.176,1.624-8.356,0.9-16.304-2.284
				c-3.732-1.496-6.052-3.528-6.888-6.036C105.199,188.804,106.959,185.76,106.94,185.76z"/>
			<path d="M93.544,186.036c0.576,0.124,1.148,0.188,1.728,0.188c2.168,0,4.388-0.888,6.736-2.688
				c3.704-2.84,30.932-32.948,32.088-34.228l1.776-1.968l-49.708,8.888c-0.184,0.068-4.456,1.732-6.104,6.068
				c-1.176,3.092-0.7,6.692,1.396,10.696C85.711,181.108,89.44,185.132,93.544,186.036z M81.752,162.96
				c1.332-3.536,4.944-4.992,4.9-4.992l44.316-7.908c-6.264,6.904-27.016,29.7-30.064,32.036c-2.528,1.94-4.808,2.644-6.968,2.168
				c-3.488-0.768-6.944-4.612-10.872-12.112C81.219,168.632,80.776,165.544,81.752,162.96z"/>
			<path d="M163.332,189.996c1.908,2.856,4.116,4.412,6.748,4.752c0.364,0.048,0.732,0.072,1.112,0.072
				c3.928,0,8.592-2.568,14.9-8.168c3.436-3.044,5.14-6.216,5.056-9.428c-0.108-4.312-3.42-7.016-3.704-7.224l-42.812-22.6
				l0.972,2.332C146.228,151.224,160.896,186.336,163.332,189.996z M186.451,171.512c0.028,0.02,2.804,2.312,2.884,5.776
				c0.06,2.644-1.436,5.336-4.444,8.004c-6.412,5.68-11.068,8.104-14.58,7.656c-2.08-0.268-3.872-1.564-5.472-3.96
				c-1.76-2.644-11.112-24.56-16.584-37.624L186.451,171.512z"/>
			<path d="M192.18,166.988c1.448,0.42,2.776,0.628,4.004,0.628c1.82,0,3.4-0.464,4.784-1.392c3.488-2.34,5.488-7.448,6.484-16.56
				c0.492-4.496-0.384-8.016-2.608-10.464c-3.132-3.444-7.72-3.42-8.068-3.4l-49.352,9.88l2.376,1.18
				C151.344,147.628,187.691,165.7,192.18,166.988z M196.968,137.6h0.004c0.18,0,4,0.04,6.528,2.824
				c1.86,2.048,2.58,5.092,2.148,9.052c-0.92,8.416-2.728,13.26-5.692,15.248c-1.84,1.232-4.22,1.404-7.276,0.524
				c-3.688-1.064-31.344-14.696-39.696-18.832L196.968,137.6z"/>
			<path d="M25.923,96.52c-2.572,0-2.58,4,0,4C28.495,100.52,28.503,96.52,25.923,96.52z"/>
			<path d="M25.472,116.912c-2.576,0-2.58,4,0,4C28.044,120.912,28.052,116.912,25.472,116.912z"/>
			<path d="M46.315,128.696c-2.572,0-2.576,4,0,4C48.888,132.696,48.896,128.696,46.315,128.696z"/>
			<path d="M48.128,88.364c-2.572,0-2.576,4,0,4C50.7,92.364,50.708,88.364,48.128,88.364z"/>
			<path d="M43.596,87.832c2.572,0,2.58-4,0-4C41.024,83.832,41.019,87.832,43.596,87.832z"/>
			<path d="M74.412,61.096c2.572,0,2.58-4,0-4C71.839,57.096,71.836,61.096,74.412,61.096z"/>
			<path d="M56.284,57.016c2.572,0,2.58-4,0-4C53.711,53.016,53.708,57.016,56.284,57.016z"/>
			<path d="M59.456,90.096c2.572,0,2.58-4,0-4C56.883,86.096,56.88,90.096,59.456,90.096z"/>
			<path d="M80.303,126.804c2.572,0,2.58-4,0-4C77.727,122.804,77.724,126.804,80.303,126.804z"/>
			<path d="M43.596,152.592c-2.572,0-2.576,4,0,4C46.167,156.592,46.175,152.592,43.596,152.592z"/>
			<path d="M10.967,114.192c-2.572,0-2.576,4,0,4C13.539,118.192,13.547,114.192,10.967,114.192z"/>
			<path d="M20.703,142.288c-2.576,0-2.58,4,0,4C23.276,146.288,23.284,142.288,20.703,142.288z"/>
			<path d="M107.039,105.96c2.572,0,2.58-4,0-4C104.467,101.96,104.459,105.96,107.039,105.96z"/>
		</g>
	</g>
</g>
<g>
</g>
<g>
</g>
<g>
</g>
<g>
</g>
<g>
</g>
<g>
</g>
<g>
</g>
<g>
</g>
<g>
</g>
<g>
</g>
<g>
</g>
<g>
</g>
<g>
</g>
<g>
</g>
<g>
</g>
</svg>
