<svg id="Layer_1" data-name="Layer 1" xmlns="http://www.w3.org/2000/svg" viewBox="0 0 230 230"><defs><style>.cls-1{fill:none;stroke:#436c37;stroke-width:3px;}.cls-2{fill:#436c37;}</style></defs><circle class="cls-1" cx="115" cy="115" r="62.43"/><circle class="cls-2" cx="115" cy="115" r="4.97"/><line class="cls-1" x1="115" y1="56.43" x2="115" y2="113.39"/><line class="cls-1" x1="115" y1="158.28" x2="115" y2="172.5"/><line class="cls-1" x1="71.52" y1="115" x2="57.32" y2="115"/><line class="cls-1" x1="172.38" y1="115" x2="158.18" y2="115"/><line class="cls-1" x1="143.61" y1="65.13" x2="136.51" y2="77.43"/><line class="cls-1" x1="86.1" y1="65.11" x2="93.18" y2="77.44"/><line class="cls-1" x1="77.32" y1="93.28" x2="65.03" y2="86.18"/><line class="cls-1" x1="152.37" y1="93.28" x2="164.67" y2="86.18"/><line class="cls-1" x1="86.08" y1="164.8" x2="93.18" y2="152.5"/><line class="cls-1" x1="143.6" y1="164.81" x2="136.51" y2="152.49"/><line class="cls-1" x1="152.37" y1="136.65" x2="164.67" y2="143.75"/><line class="cls-1" x1="77.32" y1="136.65" x2="65.03" y2="143.75"/><path class="cls-2" d="M96.86,131.39l-2.48,1.69v-1.92l2.72-1.93h2v11.71H96.86Z"/><path class="cls-2" d="M101.29,140.55l4.43-4.67c1.11-1.18,1.78-2.21,1.78-3.33a1.62,1.62,0,0,0-1.75-1.78c-1.16,0-1.9.67-2.1,2.32h-2a3.89,3.89,0,0,1,4.16-4c2.43,0,3.87,1.4,3.87,3.46,0,1.52-.9,2.85-2.29,4.19l-2.61,2.54h5v1.69h-8.47Z"/><path class="cls-2" d="M112,128.41h2v5.32a3,3,0,0,1,2.77-1.54c1.72,0,2.93,1,2.93,3.36v5.39h-2v-5.21c0-1.29-.52-1.88-1.7-1.88a1.89,1.89,0,0,0-2,2v5.05h-2Z"/><path class="cls-2" d="M122.31,132.37h2V134a2.86,2.86,0,0,1,2.78-1.74v1.85c-1.73,0-2.78.58-2.78,2.39v4.46h-2Z"/><path class="cls-2" d="M128.45,138.27h1.87c.1.87.54,1.38,1.7,1.38s1.54-.38,1.54-1.1-.57-1-1.83-1.18c-2.26-.36-3.1-1-3.1-2.61s1.61-2.57,3.21-2.57c1.75,0,3.15.66,3.36,2.59h-1.84a1.31,1.31,0,0,0-1.52-1.15c-.85,0-1.36.41-1.36,1s.41.87,1.77,1.1c2,.31,3.21.8,3.21,2.62s-1.23,2.73-3.42,2.73S128.53,140.09,128.45,138.27Z"/></svg>