<svg id="Layer_1" data-name="Layer 1" xmlns="http://www.w3.org/2000/svg" viewBox="0 0 230 230"><defs><style>.cls-1{fill:#436c37;}</style></defs><path class="cls-1" d="M58.72,115a56.92,56.92,0,1,0,56.92-56.92A56.9,56.9,0,0,0,58.72,115m-4.47-4.44c3.55-16,3.86-22.26,7.65-31.52C65.57,70,71,64.13,82.81,60.86s14.46-6.75,24.49-8.36c14-2.25,17.71,1.32,28.67,4.89,15,4.88,22.55,13.77,26.22,16.94S173,87,175.25,96c1.64,6.53,1.41,14.86,1.63,22.85.41,14.69-2.65,23.26-7.55,30.81-5,7.75-3.67,12.86-22,19.69-12.23,4.55-17.81,5.1-29.59,8.06s-25.79-2.3-34.69-9.18S65.27,155,60.57,141.66c-4.18-11.84-10-14.62-6.32-31.12"/><path class="cls-1" d="M139.61,87.6c-.76-.06-2.37.86-3.79,2a21.16,21.16,0,0,0-4.08,3.94,22.4,22.4,0,0,1-2.06,2.6c-.74.72-1.62,1.3-2.3,2.09-1.35,1.58-1.3,2.12-2.81,3.57-.76.74-.85.36-1.45,1.25s-1.06,2-1.72,3c-1.22,1.74-.87.7-2.1,2.44-2.75,3.86-1,1.64-3.29,5.8s-.53.4-2.44,4.78a15.07,15.07,0,0,1-2.14,3.65c-1.15,1.75-1.33,1.45-2.19,3.38-.38.84-.44,2.1-1.61,2.25-1.33.17-1.53-3.33-1.86-4.24-1.39-4-1.88-3.69-3.47-7.58-1.11-2.73-1.41-4.81-2.93-6.73s-2.89-2.57-5-2.09c-1.36.3-1.87.23-2.89,1.27-1.31,1.32-.1,2.9.82,4a16.62,16.62,0,0,1,3,5.83c.77,2.47,2.63,5.78,3.43,8.67.88,3.19,2.19,5.11,2.62,7.13s1.15,4.33,2.39,5.15a4.52,4.52,0,0,0,4,.33c1.1-.42,2-.29,3.63-1.74s2.31-3.84,3.13-5.66c1-2.18.69-2.49,1.88-4.56.81-1.41,1.4-2,2.67-4a19.79,19.79,0,0,0,2.3-4.85,20.12,20.12,0,0,1,2.06-5,25.1,25.1,0,0,1,3.52-5c1.07-1.09,1-2.82,2.43-4.58,1.32-1.59,2.45-2.49,2.66-3s1.39-1.06,1.5-2.43a4,4,0,0,1,1.21-2.31c.55-1.07,1.24-1.34,1.17-2.24s.6-1.26.43-1.84.73-1.52,1.15-2a15.39,15.39,0,0,1,1.75-1.9c.34-.34,1.21-1.4.45-1.46"/><path class="cls-1" d="M79.7,141.63a2.35,2.35,0,0,0,3,3.61,2.38,2.38,0,0,0,.31-3.32,2.35,2.35,0,0,0-3.31-.29M90.59,152.1c1.36-2.46,3.91-3.39,6.8-1.78l2.54,1.41-4.68,8.42-2.54-1.41c-2.82-1.57-3.49-4.19-2.12-6.64m8.23-4.35c-4.49-2.5-8.93-1.44-11.22,2.69-2.08,3.73-1.23,8.15,3.68,10.87l5.48,3.05,7.54-13.57Zm15.86,7-.23,3.57-7.23-.47L107,160.6l7.23.46-.21,3.3-8.37-.54-.19,2.94,11.72.75,1-15.48-11.94-.77-.19,2.93Zm6.11-3.25,3.14,15.19,3.29-.67-3.14-15.2Zm12-3.94,2.72,5.59-6.15,3,1.2,2.47,6.16-3,1.59,3.24-7.39,3.61,1.29,2.64L142.6,160l-6.81-13.95Zm5-3.12,10.07,11.8,2.56-2.18-10.08-11.8Zm16.83,6.28,8-11.89-2.44-1.64-3.07,4.56-10.44-7-1.87,2.78,10.43,7-3.05,4.53Zm9.86-28.39-.79,4a2.29,2.29,0,0,1-2.68,1.82,2.19,2.19,0,0,1-1.82-2.57l.82-4.11Zm-12.34-2.45,5,1-.64,3.22-5.69,2.55-.75,3.76,6.49-2.85a4.88,4.88,0,0,0,3.81,3.9,5.45,5.45,0,0,0,6.18-4.34l1.49-7.49-15.22-3Zm2.13-14.26,3.51-.68,1.38,7.12,2.7-.53-1.38-7.11,3.25-.63,1.59,8.23,2.89-.56L166,99.93l-15.24,2.95L153,114.63l2.89-.56ZM149,84.54a8.19,8.19,0,0,0-2.12,11.21c1.52,2.25,4.34,4.1,6.84,3.69l-.18-3.2a4.35,4.35,0,0,1-4.11-2.08,4.79,4.79,0,0,1,1.39-6.73,4.65,4.65,0,0,1,6.66,1.24,4.2,4.2,0,0,1,.41,4.54l2.94,1.13c1.09-2,.9-4.72-.82-7.28a7.88,7.88,0,0,0-11-2.52M129,63.88l1.77,11.75-2.09,5,3.09,1.3L133.88,77,143.61,70l-3.37-1.42-6.78,5-1.1-8.32Zm-8.34,14.28,2.78,0-.06-8-6.22,0,0,2.45,3.44,0v.75a5.8,5.8,0,0,1-4.18,2,4.69,4.69,0,0,1-4.81-4.82,4.61,4.61,0,0,1,4.54-4.92,4.53,4.53,0,0,1,4.07,2.24l2.54-1.9c-1.13-2-3.44-3.36-6.52-3.34a7.85,7.85,0,0,0-8,7.84,8,8,0,0,0,7.92,7.9,6.45,6.45,0,0,0,4.48-1.73ZM93,71.05l3.68-1.68a2.3,2.3,0,0,1,3.05,1.11,2.17,2.17,0,0,1-1,3l-3.81,1.74Zm5.23,11.44-2.12-4.62,3-1.36,5.39,3.11L108,78l-6.09-3.59a4.88,4.88,0,0,0,.93-5.37,5.45,5.45,0,0,0-7.15-2.47l-6.94,3.17L95.2,83.88ZM85.44,89.1l-2.62-2.45,5-5.29-2-1.87-5,5.29L78.4,82.52l5.73-6.12-2.15-2L74,83l11.33,10.6,8.18-8.74-2.16-2Zm-1,5.24L81.69,93.2l-3.08,7.32L67,95.63l-1.3,3.1,14.3,6Zm-5.06,11.41-2.93-.19-.52,7.93-12.55-.82L63.14,116l15.48,1Zm-5.8,20,1.39,4.25-5.35-.65Zm8.33,4.4-3.94-.35-1.87-5.72,3-2.61L78,118.15,65.29,129.37l.85,2.61L83,133.61Z"/></svg>