<svg id="Layer_1" data-name="Layer 1" xmlns="http://www.w3.org/2000/svg" viewBox="0 0 230 230"><defs><style>.cls-1{fill:none;stroke:#436c37;stroke-width:3px;}</style></defs><path class="cls-1" d="M116.17,179.58a3.7,3.7,0,0,0,3.87-3.74V150c-.34-2.71.21-5.09,1.91-6.79l3.06-3.06c1.69-1.7,3.4-3.74,5.09-5.44a14.8,14.8,0,0,0,2.38-3.06c1.36-1.69,2.38-3.4,3.74-5.43.68-1,1.7-3.06,2-3.4a71.15,71.15,0,0,0,9.51-37.38v-1.7c0-.34.35-.68.35-1.36a9.68,9.68,0,0,0,.33-3.06V73.55a16.6,16.6,0,0,1,3.07-11.21,4.41,4.41,0,0,0-3.07-7.47H83.21a4,4,0,0,0-4.08,4.41,6.11,6.11,0,0,0,1.36,3.06,13.36,13.36,0,0,1,3.06,11.21v5.78a9.41,9.41,0,0,0,.34,3.06c.34.34.34.68.34,1.36v1.7a71.34,71.34,0,0,0,9.51,37.38,21.82,21.82,0,0,0,2,3.4,50.76,50.76,0,0,0,3.74,5.43c.34.35,1.7,2.38,2.38,3.06a38.66,38.66,0,0,0,5.1,5.44l3.06,3.06A8.17,8.17,0,0,1,112,150v25.83C112.3,177.88,113.21,179.58,116.17,179.58Z"/></svg>