<svg id="Layer_1" data-name="Layer 1" xmlns="http://www.w3.org/2000/svg" viewBox="0 0 230 230"><defs><style>.cls-1{fill:none;stroke:#436c37;stroke-miterlimit:10;stroke-width:3px;}</style></defs><path class="cls-1" d="M172.83,71.83,169.1,86.05l-14.22-3.73m16.82-6.18-2.6,9.91-9.91-2.6m-34.52,49.2c10.45-10.75,25.74-15.89,25.74-15.89s-14.4,13.08-20.69,23.69M115,122.36c21.29-20.38,59.6-22,59.6-22a60.78,60.78,0,0,1,1.77,14.49A61.52,61.52,0,0,1,115,176.35m24.23-5C130,97,54.62,104.16,54.62,104.16a61.06,61.06,0,0,0-1,11.14c.08,33.55,27.84,61.14,61.41,61.05M58,92.5A61.33,61.33,0,0,1,169.1,86.05"/></svg>