<svg id="Layer_1" data-name="Layer 1" xmlns="http://www.w3.org/2000/svg" viewBox="0 0 230 230"><defs><style>.cls-1{fill:none;stroke:#436c37;stroke-miterlimit:10;stroke-width:3px;}</style></defs><path id="Path_1297" data-name="Path 1297" class="cls-1" d="M114.88,177.61a62.71,62.71,0,0,1-56.32-35.15h5.59a30.19,30.19,0,0,1,10.35,1.4c6.8,2,12.69,8.49,20.25,8.49h26.42c15.13,0,10.94-11.52,10.94-11.52,7.79-5.7,2-11.52,2-11.52,7.94-5.91.59-12.68.59-12.68,4.77-3.84,2.44-13.38-4.54-13.38H113.72c-4.19,0-4.42-4.54-2-14.32,2.45-9.54-2.06-15.89-5.47-15.47-2.2.26-3.06,1.88-3.84,5.47s-7.1,18-9.19,22.34-5.47,7.8-11.52,7.8H52.51a62.74,62.74,0,0,1,62.26-56.68H115a62.61,62.61,0,0,1-.12,125.22Z"/></svg>