<svg id="Layer_1" data-name="Layer 1" xmlns="http://www.w3.org/2000/svg" xmlns:xlink="http://www.w3.org/1999/xlink" viewBox="0 0 230 230"><defs><style>.cls-1{fill:none;}.cls-2{clip-path:url(#clip-path);}.cls-3{fill:#436c37;}.cls-4{fill:#fff;}</style><clipPath id="clip-path"><rect class="cls-1" x="35.78" y="51.8" width="158.43" height="127.75"/></clipPath></defs><g class="cls-2"><path class="cls-3" d="M189.5,138.26h1.1v-.5h-1.1v-1.42h1.1v-.5h-1.66v4.23h.56Zm1.1,0h.3c.67,0,.75.41.75.75a4.68,4.68,0,0,0,.09,1.06h.71V140c-.19-.11-.21-.2-.21-.43l-.05-.76c0-.6-.26-.71-.49-.79a1.09,1.09,0,0,0,.58-1c0-.9-.69-1.14-1.38-1.14h-.3v.5h.32c.3,0,.78,0,.78.69s-.45.73-.87.73h-.23Z"/><path class="cls-3" d="M110.15,61.82a.71.71,0,0,1,.21.41c-1.16.73-2.19,3.36-2.52,4.91,2.83-.19,4.61-2.72,7-3.66-2,1.38-3.15,3.47-3.88,7.65,3.34-.52,2.93-1.25,8.45-1.15-2,.83-5.2,2.72-5.52,4.92,1.14,0,4-.73,4.79-1.9-2.07,2.93-3.84,4.4-7.72,6.08.32.63,1.68,1.47,5.43,3.78-3.75,1.25-5.22.92-8.36.92.51,2.12,2.2,2.63,4.18,4.21a19.17,19.17,0,0,0-7.74.19l-1,7.76c-1.14-3-.19-5.35-2.5-5.67-1.06,3.15-1.46,4.31-1,6.4-.84-1.27-2.5-3.25-3.55-3.47,0,0,.62,10.07-1,15.82-.84,3-1.14,2.61-3.24,7.74-6.07,13.37-1.16,17.66-1.16,31.47.74-.1,1.06-1.14,1.36-1.76.43-.95.73-1.68.73-1.68a43.91,43.91,0,0,1,4.51-8.37,80.52,80.52,0,0,1,7.44-9.85c2.41-3.12,4.28-3.34,4.91-5.63-7.33.61-9.72,4.38-11.19,11.19a25.62,25.62,0,0,1-1.16-5.56,9.15,9.15,0,0,1,4.09-8.34c3.67-2.63,10-1.9,12-2.41a21.53,21.53,0,0,0,7.42-4.92c-.84,2.72-2.53,3.66-3.78,6.81-1.44,3.62-.41,6.25-2.28,10.22a7.39,7.39,0,0,1-2.41,2.82c-.74.74-1.36,1.06-3.24,1.58s-3.34.95-5.13.21c-.21.52-1,.84-1.46,1.47-1,1.25-1.88,2.93-2.53,4a59.56,59.56,0,0,0-3.45,7.3,54.54,54.54,0,0,0-3,18.85H85.55c0-.83-.21-2.1-.3-3.13-.32-3.15-1.16-6.6-1.79-9.75-2.2-8.9-4.18-13.71-9.83-22.18-.94-1.46-2.09-3.66-7.76-9.5-1.25-1.36-3.23-2.52-4.29-4.08,1.58.2,11.73,2.72,20.74,18,1.77,3.34,2.5,4.59,3.23,7.33.52,1.66.63,2.29,1.17,3.75.41.84.51.43.73.43,1.14.41-1.38-14.33-.43-19a45.25,45.25,0,0,1,3.25-11.18c.82-2.09,2.2-4.38,3-7s1.17-5.76,1.17-10A7.31,7.31,0,0,0,93,97.1a14.14,14.14,0,0,0-1.59-.43c-1.69,4.29-2.2,4.18-5.35,7,.22-2.52.84-4,.22-6.6-.74.41-2.42,2.72-4,7.74-.32-1.87-.95-2.72-1.36-4.4-2.63.54-3,4.1-7.76,5.13.63-.3,1.47-1.66,1.9-5.43-2.93.52-7.76,2.93-9.23,5.87-.73-2.72,2.52-6.82,2.63-8.18a18.31,18.31,0,0,0-9.31,3l7.41-8.16c-7.95,0-4.39.73-8.88,2.09L64.51,88c-1.35.08-4.59.08-6.06-.54,2.4-.63,5-2.4,8.15-3.45a29.92,29.92,0,0,1,3.56-1.14c-.93-2.83-2.5-4.19-1.88-7,1.26,2.84,4.51,2.93,8,2.84C75.4,75.31,75,73.33,75.72,70c.93,2.29,2.72,3.46,5.44,4,.73-2.41.21-4.07,1.89-5.54a3.23,3.23,0,0,0,2.29,3.86c.73-2.2-.09-4-.52-6,1.06,1.36,3.15,3,5,3.23.74-2.09,1.47-4.8.43-6.59.82.11,1.47,0,2.09.52,1.77,1.16,4,4.61,4,4.61.43-1.25,3.36-4.92,4.92-5.65-1.26,1.77-.93,2.93-.93,5-.11.09.71,1.56.71,1.56l-1.44,1.55-1-1.83s-2,1.83-3.43,2a8.4,8.4,0,0,0-3-4.92c-.73,2.93-1.47,4.2-1.47,6.08-1-.11-3.23-1-3.66-1.88a10,10,0,0,1-.52,3.76c-1.46,0-2.09-.63-3.45-1.14a20.29,20.29,0,0,0-.54,3.66c-2.5-.52-2.71-1.79-5.32-2-.63,1.76.41,2.82.73,4.8a11.86,11.86,0,0,1-7.76.52,5.06,5.06,0,0,0,3,3.56c-1.57.62-2.2.62-3.45,1.16a54.6,54.6,0,0,0-5,2.5,32,32,0,0,0,6.17-.52l-8,5h6.49c-.09.62-.41.94-1.66,2.3A13.24,13.24,0,0,1,65,96.87l6.81-1.15c-.21,1-1.68,2.61-2.61,4.92l7.42-3.56c0,2.82.21,4-.19,4.72,4-1.9,3.55-5,5.13-5.67.08,1.68.73,2.2.92,3.77.44-.73.54-.21,1.47-1.87.84-2.09,1.68-3.36,3.77-4.18.32,1.77,0,2.91,0,5.84,1.68-2,2.52-2.61,2.93-5.32a6.54,6.54,0,0,1,2.31.79c.52.24,1,.52,1.47.78.3-1.79.21-4.29,1-5.35,1.46.22,2.09,1.06,3.55,1.68.3-1.68-.73-2.3-.95-3.36,1.77-.3,2.82-.62,4.4,0,1-1.46.3-1.77,0-3.45,2.31.33,3.15,1.25,5.65.84-1.77-1.46-2.61-2.71-2.82-4.61,2.71.32,3.33,1.06,7,.43-3.45-2.63-4.81-2.63-5.54-3.26,2.09-.84,2.82-.92,5.75-2.08-2.19,0-4.07.43-4.61-.74,2.63-.51,4.83-2.5,6.3-4.39l-6.08,1.89c1-2.41,2-3.66,2.3-6.08a46.46,46.46,0,0,1-5.12,3.45c0-1.25.73-4.5,1.46-5.32-.22-.22.15-.24,0-.24L99.37,70.7c-.22-1.56,10.78-8.88,10.78-8.88"/><path class="cls-3" d="M81.47,157c-28.18-5.41-45.69-25.47-45.69-52.36a53.07,53.07,0,0,1,53-52.83,53.06,53.06,0,0,1,52.91,52.82c0,11.86-3,19.51-8.65,29.47l-1-.59c5.51-9.78,8.5-17.29,8.5-28.87a51.78,51.78,0,0,0-103.55,0c0,26.28,17.14,45.89,44.72,51.19Z"/><path class="cls-3" d="M127.42,150.13h0c0,2.93-.4,6.17,2.31,7.33a5.74,5.74,0,0,0,1.9.41,4.51,4.51,0,0,0,1.66-.41c2.71-1.16,2.31-4.4,2.31-7.33,0-2.63.62-5.56-1.58-6.81a4.73,4.73,0,0,0-2.39-.73,4.91,4.91,0,0,0-2.12.73c-2.28,1.36-2.09,4.1-2.09,6.81l-5.62,6.06h0a13.89,13.89,0,0,1-2.09-4.18,10.65,10.65,0,0,1,1.36-7.44,12.43,12.43,0,0,1,6.6-4.92,16.79,16.79,0,0,1,4.72-.73c1.77.11,2.72.52,4.92.73.41-1,2.09-3.23,3.23-3.44,2.93-.73,6.29,2.6,9.85-.52a4.83,4.83,0,0,1-1.16,3.45,3.76,3.76,0,0,1-2.83,2.09c-2.2.41-5.35-3.34-6.79-1.14-.54.82,0,1.35.74,1.87a11.49,11.49,0,0,1,4,4,7.79,7.79,0,0,1,.73,5.56,10.76,10.76,0,0,1-1.46,3.13,14.16,14.16,0,0,1-1.79,2,16.5,16.5,0,0,0-2.18,1.47,1.68,1.68,0,0,0-.73,1.57c0,.52.82.82,1.66.93a6.45,6.45,0,0,1,3.36,2.19,7.54,7.54,0,0,1,1.55,4.19,6.35,6.35,0,0,1-.73,3.77,11.57,11.57,0,0,1-2.72,4.18c-4.28,4.21-8.25,5.35-13.71,4.21a15.05,15.05,0,0,1-6.16-3.47,9.91,9.91,0,0,1-2.42-4.92,10.75,10.75,0,0,1,.95-5.86,9.57,9.57,0,0,1,4-4c2.93-1.46,8.58.11,9.42,3.56.21.94-.73,2.93-1.66,3.15a2.49,2.49,0,0,1-2.41,0c-.84-.54-1.36-1.9-2.72-1.79a3.1,3.1,0,0,0-2.63,1.79c-1.14,2.39,1.47,6.27,5.13,6.89a8.33,8.33,0,0,0,6.81-2.3c2.2-2.09,3.24-4.59,1.66-7.33-1.46-2.1-4.29-3.45-6.79-4.29-3.45-.93-6.92-1.25-9.64-4.4Z"/><path class="cls-3" d="M107.24,149h4.7c.92-2.82-.73-6.79-3.67-6.79s-4,4.29-3.77,6.79h2.74l.13,3.56h-3.09c0,4.39.44,7.32,4.73,8.38a3.36,3.36,0,0,0,2.5-.32c2-.63,3.77-3.67,5.84-3.45.52.11,1.06.62,1,1-3,7.95-11.71,9.72-17.79,2.5a15.33,15.33,0,0,1-2.71-6.17,14.73,14.73,0,0,1,.62-8.49c1.47-3,3.47-5.22,6.08-6.28a10.86,10.86,0,0,1,4.18-.92,15.52,15.52,0,0,1,5.46,1.55c3.53,2.09,6,8.17,4.16,12.25H107.5Z"/><path class="cls-3" d="M96.46,86.5A42.58,42.58,0,0,1,87,91.81a36.33,36.33,0,0,1-9,2.41,9.56,9.56,0,0,1-3.09-.51A4.69,4.69,0,0,1,72.6,92.2a6.05,6.05,0,0,1-.39-1.63c-.29-2,1.24-4,2.86-6.11l.45-.58a30.52,30.52,0,0,1,8.23-7l.09,0a39.87,39.87,0,0,1,9.29-4.12l1.05-.26a28.11,28.11,0,0,1,3.2-.68l.63.1h0a20.06,20.06,0,0,1,4.62.27,3.69,3.69,0,0,1,2.64,3.57,6.45,6.45,0,0,1-.3,1.54,4.15,4.15,0,0,0-.13.51,23.31,23.31,0,0,1-3.69,4.59h0c-.62.66-1.18,1.38-1.72,2.06-.17.23-.35.46-.53.68a15.49,15.49,0,0,0-2.47,1.37m9.67-13.69a5.94,5.94,0,0,0-3.21-1.94l-3.52-.43a28.82,28.82,0,0,0-7.88,1.69,45.26,45.26,0,0,0-8.94,4.19,31.29,31.29,0,0,0-9.65,8.94c-1.17,1.5-3.65,5.26-1.38,7.93a7.08,7.08,0,0,0,5.76,2.3,25.48,25.48,0,0,0,5.82-.89,33.92,33.92,0,0,0,10.12-4.45c.66-.4,1.35-.82,2.06-1.22a14.37,14.37,0,0,0,3.81-3.56l.51-.23a9.52,9.52,0,0,0,2.81-1.65,31.41,31.41,0,0,0,2.44-3.28c2-2.76,2.44-5.24,1.25-7.4"/></g><rect class="cls-4" x="102.69" y="72" width="0.02" height="0.06"/><g class="cls-2"><path class="cls-3" d="M190.51,134.55a3.53,3.53,0,1,0,3.41,3.53,3.47,3.47,0,0,0-3.41-3.53m0,7.35a3.83,3.83,0,1,1,3.71-3.82,3.75,3.75,0,0,1-3.71,3.82"/><path class="cls-3" d="M156.17,159a3.56,3.56,0,0,1-3.69,1.59,2.39,2.39,0,0,1-1.94-1.06,3.63,3.63,0,0,1-.4-1.51h0v0a6.35,6.35,0,0,1,2.11-2.52,32.61,32.61,0,0,1,3.47-1.83,3.67,3.67,0,0,0,1.92-1.16c0,2.19-.32,5-1.47,6.49m34.54,3.55c-.42-1.14-2.61-.73-2.94-2a16.72,16.72,0,0,1,0-3.88c.11-3.56.33-6.68.22-9.62a14.28,14.28,0,0,0-.43-4,7.11,7.11,0,0,0-2.83-2.83,7.71,7.71,0,0,0-4.91-.62c-2,.52-2.39,1.76-4,2.71a4.65,4.65,0,0,0-.43-2.41,1.94,1.94,0,0,0-1.46-.52,5.75,5.75,0,0,0-3.34.84c-2.42.84-4,1.69-4.4,3-.52,2.09,2.52,2.2,2.93,3.15a123.76,123.76,0,0,1-.32,13.28,4.3,4.3,0,0,1-.41,1.36c-4.19,1.68-4.81-.84-4.73-4.7.11-2.93.44-6.38.44-9a7.28,7.28,0,0,0,0-2.61,7.19,7.19,0,0,0-5.35-4.51c-3.13-.73-7.11-.32-9.31.95-5.35,3.13-3.77,9.72-.52,9.83a4.75,4.75,0,0,0,2.39-.73c.43-.22.54-.95.74-1.14.84-1.47-3.13-4.29.43-6.3,3.66-2.2,7.44,3.15,3.88,5.87-2.11,1.78-4.92,2.81-7.2,3.84v0h0l-.06,0c-3.53,1.65-6.15,3.29-5.31,7.13.62,2.63,2.41,4,4.92,4.91,3.34,1.17,8.16-1.76,9.63-1.35.73.21.84.73,2.09,1.16a32.19,32.19,0,0,0,5.54.19c2.63-.08,7.33,0,12.68,0a4.58,4.58,0,0,0,0-2.09,3,3,0,0,0-1-.73c-.84-.41-2.09-.62-2.42-1.25-.62-1.57-.19-4.29-.19-8.36,0-3.47,0-6.71,3.56-7.44a1.93,1.93,0,0,1,2.09.51c1.25,1,1.36,3.26,1.14,6.49s-.11,3.88-.19,6.3a10.67,10.67,0,0,0,0,1.88v.62a1.4,1.4,0,0,1-.22.73c-.62.52-1.68.74-1.89,1.47a11.32,11.32,0,0,0,0,1.79h11.31a9,9,0,0,0-.21-2"/></g></svg>